<mxfile host="app.diagrams.net" agent="Mozilla/5.0 (Windows NT 10.0; Win64; x64; rv:135.0) Gecko/20100101 Firefox/135.0" version="26.0.16">
  <diagram name="Seite-1" id="S-szOdG49rpO4P5k3YL9">
    <mxGraphModel dx="1728" dy="985" grid="1" gridSize="10" guides="1" tooltips="1" connect="1" arrows="1" fold="1" page="1" pageScale="1" pageWidth="827" pageHeight="1169" math="0" shadow="0">
      <root>
        <mxCell id="0" />
        <mxCell id="1" parent="0" />
        <mxCell id="1wnICFTqqgE6qQjqfRhv-12" value="" style="rounded=0;whiteSpace=wrap;html=1;" vertex="1" parent="1">
          <mxGeometry x="20" y="170" width="520" height="410" as="geometry" />
        </mxCell>
        <mxCell id="1wnICFTqqgE6qQjqfRhv-2" value="Linux (Devcontainer/Docker)" style="rounded=1;whiteSpace=wrap;html=1;verticalAlign=top;fontSize=16;fillColor=#dae8fc;strokeColor=#6c8ebf;" vertex="1" parent="1">
          <mxGeometry x="120" y="190" width="400" height="170" as="geometry" />
        </mxCell>
        <mxCell id="1wnICFTqqgE6qQjqfRhv-3" value="Windows" style="rounded=1;whiteSpace=wrap;html=1;verticalAlign=top;fontSize=16;fillColor=#dae8fc;strokeColor=#6c8ebf;" vertex="1" parent="1">
          <mxGeometry x="120" y="390" width="190" height="170" as="geometry" />
        </mxCell>
        <mxCell id="1wnICFTqqgE6qQjqfRhv-9" style="edgeStyle=orthogonalEdgeStyle;rounded=0;orthogonalLoop=1;jettySize=auto;html=1;entryX=0;entryY=0.5;entryDx=0;entryDy=0;" edge="1" parent="1" source="1wnICFTqqgE6qQjqfRhv-5" target="1wnICFTqqgE6qQjqfRhv-7">
          <mxGeometry relative="1" as="geometry">
            <Array as="points">
              <mxPoint x="60" y="290" />
              <mxPoint x="60" y="480" />
            </Array>
          </mxGeometry>
        </mxCell>
        <mxCell id="1wnICFTqqgE6qQjqfRhv-10" value="TCP/UDP" style="edgeLabel;html=1;align=center;verticalAlign=middle;resizable=0;points=[];" vertex="1" connectable="0" parent="1wnICFTqqgE6qQjqfRhv-9">
          <mxGeometry x="-0.0375" y="2" relative="1" as="geometry">
            <mxPoint as="offset" />
          </mxGeometry>
        </mxCell>
        <mxCell id="1wnICFTqqgE6qQjqfRhv-5" value="5p" style="rounded=1;whiteSpace=wrap;html=1;fillColor=#f8cecc;strokeColor=#b85450;" vertex="1" parent="1">
          <mxGeometry x="170" y="260" width="120" height="60" as="geometry" />
        </mxCell>
        <mxCell id="1wnICFTqqgE6qQjqfRhv-8" style="edgeStyle=orthogonalEdgeStyle;rounded=0;orthogonalLoop=1;jettySize=auto;html=1;" edge="1" parent="1" source="1wnICFTqqgE6qQjqfRhv-6" target="1wnICFTqqgE6qQjqfRhv-5">
          <mxGeometry relative="1" as="geometry" />
        </mxCell>
        <mxCell id="1wnICFTqqgE6qQjqfRhv-6" value="pcap(ng) file" style="rounded=1;whiteSpace=wrap;html=1;fillColor=#fff2cc;strokeColor=#d6b656;" vertex="1" parent="1">
          <mxGeometry x="354" y="260" width="120" height="60" as="geometry" />
        </mxCell>
        <mxCell id="1wnICFTqqgE6qQjqfRhv-7" value="TCP/UDP receiver" style="rounded=1;whiteSpace=wrap;html=1;fillColor=#f8cecc;strokeColor=#b85450;" vertex="1" parent="1">
          <mxGeometry x="160" y="450" width="120" height="60" as="geometry" />
        </mxCell>
      </root>
    </mxGraphModel>
  </diagram>
</mxfile>
